<svg xmlns="http://www.w3.org/2000/svg" width="1200" height="630" viewBox="0 0 1200 630">
  <defs>
    <linearGradient id="bg" x1="0" y1="0" x2="1" y2="1">
      <stop offset="0" stop-color="#023020"/>
      <stop offset="1" stop-color="#0f5a3c"/>
    </linearGradient>
    <filter id="shadow" x="-20%" y="-20%" width="140%" height="140%">
      <feDropShadow dx="0" dy="18" stdDeviation="24" flood-color="#001a10" flood-opacity="0.35"/>
    </filter>
  </defs>
  <rect width="1200" height="630" fill="url(#bg)"/>
  <circle cx="1040" cy="110" r="210" fill="#ffffff" opacity="0.07"/>
  <circle cx="118" cy="560" r="260" fill="#ffffff" opacity="0.06"/>

  <g transform="translate(80 70)">
    <g transform="translate(0 0)">
      <circle cx="42" cy="42" r="42" fill="#f0f5f3"/>
      <path d="M42 17c18 18 18 41 0 59C24 58 24 35 42 17Z" fill="#023020"/>
      <path d="M42 17c-18 18-18 41 0 59 18-18 18-41 0-59Z" fill="#34a853" opacity="0.9" transform="rotate(90 42 46)"/>
    </g>
    <text x="110" y="55" font-family="Inter, Arial, sans-serif" font-size="44" font-weight="700" fill="#ffffff">SproutHelm</text>
  </g>

  <g filter="url(#shadow)">
    <rect x="720" y="140" width="360" height="350" rx="28" fill="#ffffff"/>
    <rect x="752" y="176" width="170" height="20" rx="10" fill="#023020" opacity="0.18"/>
    <rect x="752" y="226" width="276" height="46" rx="23" fill="#f0f5f3"/>
    <rect x="792" y="241" width="180" height="14" rx="7" fill="#023020" opacity="0.45"/>
    <rect x="752" y="300" width="276" height="46" rx="23" fill="#023020" opacity="0.12"/>
    <rect x="792" y="315" width="210" height="14" rx="7" fill="#023020" opacity="0.45"/>
    <rect x="752" y="374" width="210" height="46" rx="23" fill="#023020"/>
    <rect x="792" y="389" width="120" height="14" rx="7" fill="#ffffff" opacity="0.88"/>
  </g>

  <text x="80" y="260" font-family="Inter, Arial, sans-serif" font-size="68" font-weight="800" line-height="1.05" fill="#ffffff">
    <tspan x="80" dy="0">Chat widget for</tspan>
    <tspan x="80" dy="78">private duty</tspan>
    <tspan x="80" dy="78">home care</tspan>
  </text>
  <text x="80" y="520" font-family="Inter, Arial, sans-serif" font-size="31" font-weight="500" fill="#e7f3ee">
    Turn website visitors into owned client leads.
  </text>
</svg>
