<?xml version="1.0" standalone="no"?>
<!DOCTYPE svg PUBLIC "-//W3C//DTD SVG 20010904//EN"
 "http://www.w3.org/TR/2001/REC-SVG-20010904/DTD/svg10.dtd">
<svg version="1.0" xmlns="http://www.w3.org/2000/svg"
 width="1200.000000pt" height="1200.000000pt" viewBox="0 0 1200.000000 1200.000000"
 preserveAspectRatio="xMidYMid meet">

<g transform="translate(0.000000,1200.000000) scale(0.100000,-0.100000)"
fill="#000000" stroke="none">
<path d="M9711 10670 c-280 -10 -563 -26 -766 -45 -377 -35 -591 -57 -720 -75
-383 -53 -630 -90 -730 -109 -60 -12 -171 -32 -245 -45 -141 -26 -382 -76
-485 -101 -33 -8 -127 -31 -210 -50 -292 -68 -640 -170 -990 -289 -277 -94
-416 -144 -429 -155 -6 -4 -51 -23 -101 -41 -49 -18 -94 -37 -100 -41 -5 -4
-48 -23 -95 -42 -180 -74 -602 -284 -765 -381 -235 -139 -446 -276 -618 -401
-405 -293 -796 -682 -1103 -1095 -90 -120 -151 -210 -219 -320 -12 -19 -40
-64 -62 -100 -104 -166 -250 -465 -336 -685 -105 -266 -175 -533 -238 -897
-21 -123 -32 -386 -26 -633 8 -321 13 -360 87 -735 29 -150 124 -474 160 -545
5 -11 21 -51 36 -90 14 -38 29 -74 33 -80 4 -5 15 -29 24 -53 43 -111 189
-387 275 -522 23 -36 54 -85 69 -110 43 -72 221 -308 295 -393 37 -42 68 -81
68 -86 0 -16 -98 -88 -530 -391 -256 -179 -681 -458 -940 -615 -80 -49 -167
-103 -195 -120 -27 -18 -63 -40 -80 -49 -16 -9 -55 -32 -85 -50 -30 -18 -120
-70 -200 -116 -218 -124 -238 -138 -267 -187 -21 -37 -25 -53 -21 -99 8 -92
71 -152 170 -162 51 -5 97 14 248 103 41 24 98 56 125 71 28 16 58 33 67 39
10 5 77 46 150 90 167 100 433 264 518 320 36 23 126 82 200 130 347 226 685
458 979 672 62 46 117 83 122 83 4 0 27 -18 51 -41 511 -490 1216 -886 1868
-1049 201 -51 244 -59 455 -91 457 -67 764 -62 1260 21 236 40 440 99 770 225
91 34 394 182 510 248 331 188 716 480 1003 762 134 130 410 437 459 511 15
21 32 44 38 49 6 6 23 28 38 50 14 22 41 60 58 85 40 55 213 314 238 355 81
135 199 352 270 499 89 183 159 334 166 358 4 13 18 46 30 73 28 61 88 213
123 309 82 230 106 301 133 390 16 55 32 103 35 108 13 21 124 433 164 608 16
69 31 132 34 140 12 29 78 355 102 500 13 80 30 177 39 215 8 39 26 158 40
265 14 107 30 213 35 235 5 22 18 146 30 275 11 129 25 255 30 280 15 73 27
274 50 825 22 506 10 1510 -20 1745 -24 183 -177 367 -360 431 -59 21 -85 23
-275 25 -115 1 -315 -2 -444 -6z m611 -369 c90 -39 102 -72 124 -346 25 -309
25 -1290 1 -1605 -9 -118 -22 -296 -28 -394 -26 -426 -138 -1355 -178 -1480
-6 -17 -22 -98 -37 -181 -14 -82 -28 -153 -30 -156 -2 -4 -15 -65 -29 -135
-14 -71 -31 -144 -37 -163 -6 -19 -23 -86 -39 -150 -39 -163 -150 -546 -173
-601 -8 -19 -25 -69 -37 -110 -11 -41 -24 -79 -29 -85 -4 -5 -15 -35 -24 -65
-26 -85 -133 -353 -182 -457 -13 -28 -24 -55 -24 -59 0 -10 -231 -475 -250
-504 -10 -14 -41 -68 -70 -120 -30 -52 -61 -106 -70 -120 -10 -14 -56 -83
-103 -155 -47 -71 -102 -152 -122 -180 -20 -27 -44 -61 -53 -76 -9 -14 -32
-43 -49 -65 -18 -21 -49 -59 -69 -84 -168 -208 -429 -474 -624 -635 -58 -48
-116 -97 -130 -108 -44 -38 -202 -153 -297 -215 -164 -108 -520 -304 -594
-327 -13 -4 -55 -22 -94 -40 -38 -18 -95 -40 -125 -50 -30 -9 -69 -23 -85 -30
-17 -8 -66 -24 -110 -35 -44 -12 -116 -32 -160 -46 -124 -37 -453 -91 -623
-103 -299 -21 -529 -10 -820 39 -348 60 -580 127 -902 262 -133 56 -418 206
-535 282 -27 18 -90 59 -140 91 -49 33 -121 84 -159 115 -37 30 -79 62 -91 70
-13 9 -71 56 -129 105 -75 64 -105 96 -103 110 2 18 89 96 151 135 16 10 54
39 85 64 31 25 119 96 196 158 252 201 293 235 436 358 48 41 140 121 205 176
157 134 195 167 274 239 36 33 110 101 165 150 141 127 276 256 538 512 l227
223 621 0 c598 0 621 1 659 20 45 23 73 59 90 118 17 54 2 107 -42 158 -58 66
-43 64 -512 64 -271 0 -427 4 -431 10 -3 5 41 58 98 117 95 99 245 263 341
373 22 25 76 86 121 135 45 50 122 135 170 190 89 102 130 147 175 194 14 14
124 139 245 276 121 138 271 308 335 378 63 70 125 147 138 170 40 74 25 164
-38 220 -42 39 -89 52 -150 44 -49 -6 -77 -29 -173 -137 -41 -47 -188 -213
-327 -370 -139 -157 -263 -296 -274 -309 -12 -13 -34 -38 -51 -56 -64 -70 -94
-104 -205 -230 -228 -258 -508 -564 -680 -740 -443 -456 -1005 -997 -1359
-1308 -51 -45 -137 -120 -190 -167 -349 -310 -1067 -880 -1108 -880 -21 0 -71
58 -248 286 -40 51 -150 217 -176 263 -11 20 -38 65 -60 101 -44 73 -176 339
-221 445 -76 180 -156 432 -194 610 -13 61 -28 125 -33 144 -47 156 -63 811
-28 1101 10 80 24 168 31 195 8 28 24 97 35 155 12 58 28 123 36 145 7 22 23
76 35 120 12 44 26 85 30 90 4 6 19 44 33 85 73 213 289 649 376 762 12 14 21
29 21 33 0 22 255 365 400 540 142 170 502 513 671 640 15 11 62 47 105 80 44
33 95 71 116 85 191 131 249 170 254 170 3 0 24 13 47 29 141 96 514 297 767
413 206 95 289 131 430 185 36 13 81 31 100 40 75 33 373 135 730 249 75 24
214 61 405 109 55 14 134 34 175 46 85 24 310 71 610 130 460 90 762 135 1150
174 85 9 198 22 250 30 161 24 553 50 1070 71 91 4 167 8 169 10 2 2 86 4 187
4 156 0 189 -3 226 -19z"/>
<path d="M8020 4328 c-63 -32 -93 -92 -87 -169 9 -108 26 -123 247 -216 216
-92 253 -105 301 -105 146 2 226 156 145 278 -23 35 -42 48 -121 83 -51 22
-96 41 -100 41 -4 0 -44 17 -89 39 -162 77 -221 87 -296 49z"/>
<path d="M7465 3501 c-50 -22 -96 -89 -103 -147 -3 -34 1 -52 21 -86 34 -56
322 -350 366 -373 49 -25 145 -17 190 14 60 43 86 134 60 212 -15 45 -319 354
-374 380 -51 24 -109 24 -160 0z"/>
<path d="M4605 2971 c-41 -18 -90 -68 -106 -106 -40 -99 -88 -215 -122 -290
-51 -117 -59 -190 -25 -255 32 -62 92 -93 167 -86 67 6 122 41 145 93 10 21
27 56 37 79 10 22 19 44 19 48 0 4 13 35 29 69 83 181 104 239 103 294 0 46
-5 62 -30 92 -61 76 -139 98 -217 62z"/>
<path d="M6600 2958 c-66 -18 -120 -93 -120 -165 0 -22 19 -84 46 -148 25 -60
56 -139 69 -175 49 -137 82 -197 123 -225 92 -61 214 -35 260 55 31 59 25 128
-18 230 -17 41 -42 104 -55 140 -76 209 -113 267 -184 289 -45 13 -73 13 -121
-1z"/>
<path d="M5615 2768 c-32 -17 -76 -61 -91 -90 -11 -21 -14 -83 -14 -293 0
-288 1 -294 57 -347 81 -77 216 -59 276 36 l28 45 -3 273 -3 274 -34 42 c-18
24 -46 49 -62 57 -33 17 -125 19 -154 3z"/>
</g>
</svg>
