<svg width="1200" height="675" viewBox="0 0 1200 675" fill="none" xmlns="http://www.w3.org/2000/svg">
  <rect width="1200" height="675" rx="36" fill="#F0F5F3"/>
  <rect x="72" y="72" width="1056" height="531" rx="28" fill="#FFFFFF" stroke="#D1D5DB" stroke-width="2"/>
  <rect x="132" y="138" width="220" height="28" rx="14" fill="#DDEBE5"/>
  <rect x="132" y="192" width="520" height="64" rx="18" fill="#023020" fill-opacity="0.08"/>
  <rect x="132" y="280" width="420" height="20" rx="10" fill="#E5E7EB"/>
  <rect x="132" y="316" width="470" height="20" rx="10" fill="#E5E7EB"/>
  <rect x="132" y="352" width="390" height="20" rx="10" fill="#E5E7EB"/>
  <g>
    <rect x="760" y="156" width="264" height="264" rx="28" fill="#023020"/>
    <path d="M892 208L907.277 254.023H955.679L916.501 282.454L931.778 328.477L892 300.046L852.222 328.477L867.499 282.454L828.321 254.023H876.723L892 208Z" fill="#F6C453"/>
    <path d="M816 476C849.667 447.333 883.333 433 917 433C950.667 433 984.333 447.333 1018 476" stroke="#DDEBE5" stroke-width="18" stroke-linecap="round"/>
  </g>
  <text x="132" y="456" fill="#023020" font-family="Inter, Arial, sans-serif" font-size="52" font-weight="700">What drives 5-star home care reviews?</text>
  <text x="132" y="520" fill="#4B5563" font-family="Inter, Arial, sans-serif" font-size="28">The intangibles, the details, and the extra mile families never forget.</text>
</svg>
